# xmcd
#
# Track frame offsets: 
#        150
#        12407
#        24821
#        36176
#        49157
#        58194
#        69666
#        80577
#        91590
#        102351
#
# Disc length: 1491 seconds
#
# Revision: 0
# Processed by: cddbd v1.5.2PL0 Copyright (c) Steve Scherf et al.
# Submitted via: ExactAudioCopy v1.0b4
#
DISCID=7805d10a
DTITLE=Glen Campbell - By the Time I Get to Phoenix
DYEAR=1900
DGENRE=Country
TTITLE0=By the Time I Get to Phoenix
TTITLE1=Homeward Bound
TTITLE2=Tomorrow Never Comes
TTITLE3=My Baby's Gone
TTITLE4=Back in the Race
TTITLE5=Hey Little One
TTITLE6=Bad Seed
TTITLE7=I'll Be Lucky Someday
TTITLE8=You're Young and You'll Forget
TTITLE9=Love Is a Lonesome River
EXTD=
EXTT0=
EXTT1=
EXTT2=
EXTT3=
EXTT4=
EXTT5=
EXTT6=
EXTT7=
EXTT8=
EXTT9=
PLAYORDER=
